<svg xmlns="http://www.w3.org/2000/svg" viewBox="0 0 128 128" width="128" height="128" role="img" aria-label="Chance card">
  <g stroke="#ffd84d" stroke-width="7" stroke-linecap="round">
    <path d="M64 6v10"/><path d="M64 122v-10"/><path d="M6 64h10"/><path d="M122 64h-10"/>
    <path d="M22 22l7 7"/><path d="M106 22l-7 7"/><path d="M22 106l7-7"/><path d="M106 106l-7-7"/>
  </g>
  <g stroke="#123b4f" stroke-width="4" stroke-linejoin="round">
    <rect x="30" y="20" width="66" height="88" rx="9" fill="#a9dcf5" transform="rotate(-13 64 64)"/>
    <rect x="32" y="20" width="66" height="88" rx="9" fill="#6cc3ee" transform="rotate(-5 64 64)"/>
    <g transform="rotate(5 64 64)">
      <rect x="34" y="20" width="66" height="88" rx="9" fill="#33a2e0"/>
      <rect x="41" y="27" width="52" height="74" rx="6" fill="none" stroke="#bfe8ff" stroke-width="3"/>
      <path d="M55 52A12 12 0 1 1 67 64L67 71" fill="none" stroke="#ffffff" stroke-width="9" stroke-linecap="round"/>
      <circle cx="67" cy="84" r="5.5" fill="#ffffff"/>
    </g>
  </g>
</svg>
